<svg xmlns="http://www.w3.org/2000/svg" xmlns:xlink="http://www.w3.org/1999/xlink" width="538" zoomAndPan="magnify" viewBox="0 0 403.5 120.749998" height="161" preserveAspectRatio="xMidYMid meet" version="1.0"><defs><g/></defs><g fill="#594226" fill-opacity="1"><g transform="translate(145.314875, 92.325728)"><g><path d="M 31.265625 -16.53125 C 31.265625 -13.082031 30.59375 -10.117188 29.25 -7.640625 C 27.914062 -5.171875 25.992188 -3.28125 23.484375 -1.96875 C 20.984375 -0.65625 18.007812 0 14.5625 0 L 3.078125 0 C 3.378906 -0.738281 3.597656 -1.660156 3.734375 -2.765625 C 3.867188 -3.878906 3.945312 -5.003906 3.96875 -6.140625 C 4 -7.273438 4.015625 -8.25 4.015625 -9.0625 L 4.015625 -24 C 4.015625 -24.820312 4 -25.800781 3.96875 -26.9375 C 3.945312 -28.070312 3.867188 -29.195312 3.734375 -30.3125 C 3.597656 -31.4375 3.378906 -32.359375 3.078125 -33.078125 L 14.5625 -33.078125 C 18.007812 -33.078125 20.984375 -32.414062 23.484375 -31.09375 C 25.992188 -29.78125 27.914062 -27.894531 29.25 -25.4375 C 30.59375 -22.976562 31.265625 -20.007812 31.265625 -16.53125 Z M 5.703125 -31.46875 L 5.703125 -1.5625 L 14.5625 -1.5625 C 17.707031 -1.5625 20.394531 -2.15625 22.625 -3.34375 C 24.851562 -4.53125 26.566406 -6.238281 27.765625 -8.46875 C 28.972656 -10.695312 29.578125 -13.382812 29.578125 -16.53125 C 29.578125 -19.675781 28.972656 -22.359375 27.765625 -24.578125 C 26.566406 -26.796875 24.851562 -28.5 22.625 -29.6875 C 20.394531 -30.875 17.707031 -31.46875 14.5625 -31.46875 Z M 5.703125 -31.46875 "/></g></g></g><g fill="#594226" fill-opacity="1"><g transform="translate(179.703175, 92.325728)"><g><path d="M 5.625 -11 C 5.625 -10.882812 5.625 -10.769531 5.625 -10.65625 C 5.625 -10.550781 5.632812 -10.445312 5.65625 -10.34375 L 2.421875 -10.34375 C 2.691406 -10.582031 3 -10.984375 3.34375 -11.546875 C 3.6875 -12.109375 4.019531 -12.726562 4.34375 -13.40625 C 4.675781 -14.09375 4.976562 -14.742188 5.25 -15.359375 C 5.519531 -15.984375 5.726562 -16.457031 5.875 -16.78125 L 13.296875 -33.609375 L 20.765625 -16.78125 C 20.898438 -16.457031 21.101562 -15.984375 21.375 -15.359375 C 21.644531 -14.742188 21.953125 -14.09375 22.296875 -13.40625 C 22.640625 -12.726562 22.972656 -12.109375 23.296875 -11.546875 C 23.628906 -10.984375 23.929688 -10.582031 24.203125 -10.34375 L 20.96875 -10.34375 C 21.050781 -10.800781 21.003906 -11.378906 20.828125 -12.078125 C 20.648438 -12.773438 20.410156 -13.492188 20.109375 -14.234375 C 19.804688 -14.972656 19.503906 -15.675781 19.203125 -16.34375 C 18.898438 -17.019531 18.65625 -17.578125 18.46875 -18.015625 L 8.171875 -18.015625 C 8.003906 -17.660156 7.78125 -17.175781 7.5 -16.5625 C 7.226562 -15.945312 6.941406 -15.289062 6.640625 -14.59375 C 6.347656 -13.894531 6.101562 -13.222656 5.90625 -12.578125 C 5.71875 -11.929688 5.625 -11.40625 5.625 -11 Z M 13.296875 -30 L 8.703125 -19.328125 L 17.9375 -19.328125 Z M 13.296875 -30 "/></g></g></g><g fill="#594226" fill-opacity="1"><g transform="translate(206.376678, 92.325728)"><g><path d="M 5.546875 -9.0625 C 5.546875 -8.789062 5.546875 -8.332031 5.546875 -7.6875 C 5.546875 -7.050781 5.550781 -6.328125 5.5625 -5.515625 C 5.570312 -4.710938 5.597656 -3.925781 5.640625 -3.15625 C 5.679688 -2.394531 5.753906 -1.722656 5.859375 -1.140625 C 5.972656 -0.566406 6.113281 -0.1875 6.28125 0 L 3.125 0 C 3.28125 -0.1875 3.410156 -0.566406 3.515625 -1.140625 C 3.628906 -1.722656 3.707031 -2.394531 3.75 -3.15625 C 3.789062 -3.925781 3.816406 -4.710938 3.828125 -5.515625 C 3.847656 -6.328125 3.859375 -7.050781 3.859375 -7.6875 C 3.859375 -8.332031 3.859375 -8.789062 3.859375 -9.0625 L 3.859375 -24 C 3.859375 -24.300781 3.859375 -24.765625 3.859375 -25.390625 C 3.859375 -26.023438 3.847656 -26.742188 3.828125 -27.546875 C 3.816406 -28.359375 3.789062 -29.144531 3.75 -29.90625 C 3.707031 -30.675781 3.628906 -31.347656 3.515625 -31.921875 C 3.410156 -32.492188 3.28125 -32.878906 3.125 -33.078125 L 6.28125 -33.078125 C 6.113281 -32.878906 5.972656 -32.492188 5.859375 -31.921875 C 5.753906 -31.347656 5.679688 -30.675781 5.640625 -29.90625 C 5.597656 -29.144531 5.570312 -28.359375 5.5625 -27.546875 C 5.550781 -26.742188 5.546875 -26.023438 5.546875 -25.390625 C 5.546875 -24.765625 5.546875 -24.300781 5.546875 -24 Z M 47.796875 -4.59375 C 45.523438 -3.007812 43.25 -1.847656 40.96875 -1.109375 C 38.6875 -0.367188 36.410156 0 34.140625 0 C 30.773438 0 27.484375 -0.71875 24.265625 -2.15625 C 21.054688 -3.59375 17.976562 -5.554688 15.03125 -8.046875 C 12.09375 -10.535156 9.351562 -13.363281 6.8125 -16.53125 C 7.21875 -16.96875 7.832031 -17.617188 8.65625 -18.484375 C 9.476562 -19.347656 10.414062 -20.332031 11.46875 -21.4375 C 12.519531 -22.539062 13.601562 -23.6875 14.71875 -24.875 C 15.84375 -26.070312 16.894531 -27.21875 17.875 -28.3125 C 18.863281 -29.40625 19.707031 -30.367188 20.40625 -31.203125 C 21.101562 -32.035156 21.5625 -32.660156 21.78125 -33.078125 L 25.6875 -33.078125 C 25.332031 -32.960938 24.882812 -32.691406 24.34375 -32.265625 C 23.8125 -31.847656 23.257812 -31.367188 22.6875 -30.828125 C 22.113281 -30.296875 21.585938 -29.785156 21.109375 -29.296875 C 20.628906 -28.804688 20.265625 -28.421875 20.015625 -28.140625 C 18.160156 -26.234375 16.320312 -24.320312 14.5 -22.40625 C 12.6875 -20.488281 10.847656 -18.5625 8.984375 -16.625 C 10.460938 -14.675781 12.160156 -12.804688 14.078125 -11.015625 C 15.992188 -9.222656 18.066406 -7.613281 20.296875 -6.1875 C 22.523438 -4.769531 24.828125 -3.644531 27.203125 -2.8125 C 29.585938 -1.976562 31.96875 -1.5625 34.34375 -1.5625 C 36.5625 -1.5625 38.726562 -1.976562 40.84375 -2.8125 C 42.96875 -3.644531 44.972656 -5.019531 46.859375 -6.9375 Z M 47.796875 -4.59375 "/></g></g></g><g fill="#b2834c" fill-opacity="1"><g transform="translate(194.839936, 56.523143)"><g><path d="M -1.328125 -4.171875 C -0.992188 -4.109375 -0.707031 -4.019531 -0.46875 -3.90625 C -0.226562 -3.789062 -0.03125 -3.640625 0.125 -3.453125 C 0.28125 -3.273438 0.382812 -3.0625 0.4375 -2.8125 C 0.5 -2.570312 0.503906 -2.300781 0.453125 -2 C 0.398438 -1.675781 0.300781 -1.410156 0.15625 -1.203125 C 0.0195312 -0.992188 -0.148438 -0.835938 -0.359375 -0.734375 C -0.566406 -0.628906 -0.804688 -0.5625 -1.078125 -0.53125 C -1.359375 -0.507812 -1.660156 -0.523438 -1.984375 -0.578125 L -5.59375 -1.234375 L -5.484375 -1.8125 L -1.875 -1.15625 C -1.695312 -1.125 -1.507812 -1.109375 -1.3125 -1.109375 C -1.125 -1.109375 -0.941406 -1.132812 -0.765625 -1.1875 C -0.597656 -1.25 -0.445312 -1.347656 -0.3125 -1.484375 C -0.175781 -1.628906 -0.0859375 -1.832031 -0.046875 -2.09375 C -0.00390625 -2.34375 -0.0195312 -2.550781 -0.09375 -2.71875 C -0.164062 -2.894531 -0.269531 -3.046875 -0.40625 -3.171875 C -0.550781 -3.296875 -0.710938 -3.382812 -0.890625 -3.4375 C -1.078125 -3.5 -1.257812 -3.546875 -1.4375 -3.578125 L -5.046875 -4.234375 L -4.9375 -4.828125 Z M -1.328125 -4.171875 "/></g></g></g><g fill="#b2834c" fill-opacity="1"><g transform="translate(196.082748, 50.308359)"><g><path d="M 1.34375 -3.640625 L 1.078125 -2.9375 L -4.265625 -2.4375 L 0.28125 -0.765625 L 0.078125 -0.203125 L -5.28125 -2.171875 L -5 -2.96875 L 0.078125 -3.453125 L -4.234375 -5.03125 L -4.015625 -5.609375 Z M 1.34375 -3.640625 "/></g></g></g><g fill="#b2834c" fill-opacity="1"><g transform="translate(198.390095, 44.405454)"><g><path d="M 1.640625 -2.828125 L 0.40625 -0.703125 L -0.046875 -0.96875 L 0.421875 -1.765625 L -3.625 -4.125 L -4.09375 -3.328125 L -4.53125 -3.578125 L -3.296875 -5.703125 L -2.859375 -5.453125 L -3.3125 -4.65625 L 0.734375 -2.296875 L 1.1875 -3.09375 Z M 1.640625 -2.828125 "/></g></g></g><g fill="#b2834c" fill-opacity="1"><g transform="translate(201.691294, 38.995264)"><g><path d="M -0.25 -5.578125 L -0.578125 -5.1875 L -1.671875 -6.109375 L -2.46875 -5.15625 L 1.125 -2.109375 L 1.71875 -2.8125 L 2.109375 -2.484375 L 0.53125 -0.625 L 0.140625 -0.953125 L 0.734375 -1.65625 L -2.859375 -4.703125 L -3.65625 -3.765625 L -2.5625 -2.84375 L -2.890625 -2.453125 L -4.359375 -3.703125 L -1.71875 -6.828125 Z M -0.25 -5.578125 "/></g></g></g><g fill="#b2834c" fill-opacity="1"><g transform="translate(205.88522, 34.243522)"><g><path d="M 2.984375 -2.46875 L 0.171875 -0.140625 L -3.484375 -4.546875 L -0.671875 -6.875 L -0.34375 -6.484375 L -2.703125 -4.53125 L -1.390625 -2.953125 L 0.359375 -4.40625 L 0.6875 -4.015625 L -1.0625 -2.5625 L 0.296875 -0.90625 L 2.65625 -2.859375 Z M 2.984375 -2.46875 "/></g></g></g><g fill="#b2834c" fill-opacity="1"><g transform="translate(210.843386, 30.295789)"><g><path d="M 1.921875 -2.03125 L 2.09375 0.703125 L 1.71875 0.90625 L 1.21875 -1.625 Z M 1.921875 -2.03125 "/></g></g></g><g fill="#b2834c" fill-opacity="1"><g transform="translate(216.413941, 27.273)"><g><path d="M 3.078125 -4.125 C 3.203125 -3.769531 3.285156 -3.410156 3.328125 -3.046875 C 3.367188 -2.679688 3.347656 -2.347656 3.265625 -2.046875 C 3.179688 -1.742188 3.035156 -1.472656 2.828125 -1.234375 C 2.617188 -1.003906 2.328125 -0.828125 1.953125 -0.703125 L 0.203125 -0.078125 L -1.71875 -5.46875 L 0.03125 -6.09375 C 0.394531 -6.21875 0.734375 -6.253906 1.046875 -6.203125 C 1.367188 -6.148438 1.65625 -6.023438 1.90625 -5.828125 C 2.164062 -5.640625 2.390625 -5.398438 2.578125 -5.109375 C 2.773438 -4.816406 2.941406 -4.488281 3.078125 -4.125 Z M 2.5 -3.921875 C 2.25 -4.628906 1.921875 -5.128906 1.515625 -5.421875 C 1.117188 -5.722656 0.679688 -5.789062 0.203125 -5.625 L -0.984375 -5.1875 L 0.59375 -0.75 L 1.78125 -1.1875 C 2.257812 -1.351562 2.5625 -1.675781 2.6875 -2.15625 C 2.8125 -2.632812 2.75 -3.222656 2.5 -3.921875 Z M 2.5 -3.921875 "/></g></g></g><g fill="#b2834c" fill-opacity="1"><g transform="translate(222.426178, 25.26776)"><g><path d="M 3.21875 -0.546875 L 0.796875 -0.140625 L 0.71875 -0.65625 L 1.625 -0.796875 L 0.84375 -5.421875 L -0.0625 -5.28125 L -0.15625 -5.78125 L 2.265625 -6.1875 L 2.359375 -5.6875 L 1.453125 -5.53125 L 2.234375 -0.90625 L 3.140625 -1.0625 Z M 3.21875 -0.546875 "/></g></g></g><g fill="#b2834c" fill-opacity="1"><g transform="translate(228.69597, 24.341491)"><g><path d="M 3.953125 -1.453125 C 3.953125 -1.210938 3.898438 -0.992188 3.796875 -0.796875 C 3.691406 -0.609375 3.554688 -0.441406 3.390625 -0.296875 C 3.222656 -0.160156 3.03125 -0.0625 2.8125 0 C 2.601562 0.0703125 2.378906 0.109375 2.140625 0.109375 C 1.816406 0.109375 1.519531 0.046875 1.25 -0.078125 C 0.988281 -0.203125 0.78125 -0.378906 0.625 -0.609375 L 0.625 0 L 0.109375 0 L 0.125 -1.734375 L 0.640625 -1.734375 C 0.640625 -1.546875 0.679688 -1.363281 0.765625 -1.1875 C 0.859375 -1.019531 0.972656 -0.878906 1.109375 -0.765625 C 1.242188 -0.648438 1.398438 -0.554688 1.578125 -0.484375 C 1.765625 -0.421875 1.953125 -0.390625 2.140625 -0.390625 C 2.316406 -0.390625 2.472656 -0.410156 2.609375 -0.453125 C 2.753906 -0.503906 2.878906 -0.570312 2.984375 -0.65625 C 3.097656 -0.75 3.1875 -0.859375 3.25 -0.984375 C 3.320312 -1.109375 3.359375 -1.253906 3.359375 -1.421875 C 3.359375 -1.609375 3.316406 -1.765625 3.234375 -1.890625 C 3.148438 -2.023438 3.039062 -2.140625 2.90625 -2.234375 C 2.769531 -2.328125 2.617188 -2.410156 2.453125 -2.484375 C 2.285156 -2.554688 2.117188 -2.625 1.953125 -2.6875 C 1.742188 -2.757812 1.535156 -2.832031 1.328125 -2.90625 C 1.117188 -2.988281 0.929688 -3.09375 0.765625 -3.21875 C 0.609375 -3.351562 0.476562 -3.507812 0.375 -3.6875 C 0.269531 -3.863281 0.21875 -4.082031 0.21875 -4.34375 C 0.226562 -4.582031 0.28125 -4.789062 0.375 -4.96875 C 0.476562 -5.15625 0.609375 -5.304688 0.765625 -5.421875 C 0.929688 -5.546875 1.117188 -5.640625 1.328125 -5.703125 C 1.546875 -5.773438 1.769531 -5.8125 2 -5.8125 C 2.269531 -5.8125 2.523438 -5.75 2.765625 -5.625 C 3.003906 -5.507812 3.1875 -5.332031 3.3125 -5.09375 L 3.3125 -5.6875 L 3.84375 -5.6875 L 3.828125 -4.0625 L 3.296875 -4.0625 C 3.296875 -4.226562 3.257812 -4.382812 3.1875 -4.53125 C 3.125 -4.6875 3.03125 -4.816406 2.90625 -4.921875 C 2.789062 -5.035156 2.65625 -5.125 2.5 -5.1875 C 2.34375 -5.257812 2.175781 -5.296875 2 -5.296875 C 1.84375 -5.296875 1.691406 -5.273438 1.546875 -5.234375 C 1.410156 -5.203125 1.289062 -5.144531 1.1875 -5.0625 C 1.082031 -4.988281 1 -4.894531 0.9375 -4.78125 C 0.875 -4.664062 0.835938 -4.519531 0.828125 -4.34375 C 0.828125 -4.195312 0.863281 -4.066406 0.9375 -3.953125 C 1.007812 -3.847656 1.109375 -3.753906 1.234375 -3.671875 C 1.359375 -3.585938 1.503906 -3.515625 1.671875 -3.453125 C 1.835938 -3.390625 2.003906 -3.320312 2.171875 -3.25 C 2.390625 -3.175781 2.601562 -3.085938 2.8125 -2.984375 C 3.03125 -2.890625 3.222656 -2.773438 3.390625 -2.640625 C 3.554688 -2.515625 3.691406 -2.351562 3.796875 -2.15625 C 3.898438 -1.96875 3.953125 -1.734375 3.953125 -1.453125 Z M 3.953125 -1.453125 "/></g></g></g><g fill="#b2834c" fill-opacity="1"><g transform="translate(235.031184, 24.522573)"><g><path d="M 4.34375 -0.71875 C 4.101562 -0.257812 3.785156 0.078125 3.390625 0.296875 C 3.003906 0.515625 2.5625 0.578125 2.0625 0.484375 C 1.664062 0.410156 1.34375 0.265625 1.09375 0.046875 C 0.851562 -0.160156 0.671875 -0.410156 0.546875 -0.703125 C 0.421875 -1.003906 0.351562 -1.335938 0.34375 -1.703125 C 0.332031 -2.078125 0.359375 -2.453125 0.421875 -2.828125 C 0.492188 -3.203125 0.601562 -3.554688 0.75 -3.890625 C 0.894531 -4.222656 1.078125 -4.507812 1.296875 -4.75 C 1.515625 -4.988281 1.773438 -5.164062 2.078125 -5.28125 C 2.390625 -5.394531 2.742188 -5.414062 3.140625 -5.34375 C 3.484375 -5.28125 3.765625 -5.160156 3.984375 -4.984375 C 4.210938 -4.804688 4.363281 -4.585938 4.4375 -4.328125 L 4.5625 -4.96875 L 5.078125 -4.875 L 4.734375 -3.03125 L 4.21875 -3.125 C 4.257812 -3.332031 4.253906 -3.53125 4.203125 -3.71875 C 4.160156 -3.90625 4.085938 -4.070312 3.984375 -4.21875 C 3.878906 -4.375 3.742188 -4.503906 3.578125 -4.609375 C 3.410156 -4.722656 3.234375 -4.796875 3.046875 -4.828125 C 2.734375 -4.890625 2.460938 -4.867188 2.234375 -4.765625 C 2.015625 -4.660156 1.820312 -4.5 1.65625 -4.28125 C 1.5 -4.070312 1.367188 -3.828125 1.265625 -3.546875 C 1.160156 -3.273438 1.078125 -3 1.015625 -2.71875 C 0.960938 -2.425781 0.9375 -2.128906 0.9375 -1.828125 C 0.9375 -1.535156 0.972656 -1.265625 1.046875 -1.015625 C 1.128906 -0.773438 1.253906 -0.5625 1.421875 -0.375 C 1.597656 -0.195312 1.84375 -0.078125 2.15625 -0.015625 C 2.863281 0.109375 3.429688 -0.222656 3.859375 -1.015625 Z M 4.34375 -0.71875 "/></g></g></g><g fill="#b2834c" fill-opacity="1"><g transform="translate(241.237828, 25.805458)"><g><path d="M 4.96875 -1.1875 C 4.832031 -0.832031 4.664062 -0.5 4.46875 -0.1875 C 4.269531 0.125 4.039062 0.375 3.78125 0.5625 C 3.53125 0.757812 3.242188 0.882812 2.921875 0.9375 C 2.609375 1 2.265625 0.957031 1.890625 0.8125 C 1.515625 0.675781 1.222656 0.484375 1.015625 0.234375 C 0.816406 -0.015625 0.679688 -0.296875 0.609375 -0.609375 C 0.546875 -0.929688 0.539062 -1.273438 0.59375 -1.640625 C 0.644531 -2.003906 0.738281 -2.363281 0.875 -2.71875 C 1.007812 -3.082031 1.175781 -3.414062 1.375 -3.71875 C 1.570312 -4.03125 1.800781 -4.28125 2.0625 -4.46875 C 2.320312 -4.664062 2.609375 -4.789062 2.921875 -4.84375 C 3.242188 -4.90625 3.59375 -4.867188 3.96875 -4.734375 C 4.332031 -4.597656 4.617188 -4.398438 4.828125 -4.140625 C 5.035156 -3.890625 5.171875 -3.601562 5.234375 -3.28125 C 5.296875 -2.96875 5.300781 -2.628906 5.25 -2.265625 C 5.195312 -1.910156 5.101562 -1.550781 4.96875 -1.1875 Z M 4.40625 -1.390625 C 4.539062 -1.742188 4.625 -2.070312 4.65625 -2.375 C 4.695312 -2.6875 4.691406 -2.96875 4.640625 -3.21875 C 4.597656 -3.46875 4.503906 -3.675781 4.359375 -3.84375 C 4.210938 -4.019531 4.023438 -4.15625 3.796875 -4.25 C 3.503906 -4.351562 3.234375 -4.375 2.984375 -4.3125 C 2.742188 -4.25 2.523438 -4.128906 2.328125 -3.953125 C 2.128906 -3.773438 1.953125 -3.5625 1.796875 -3.3125 C 1.648438 -3.0625 1.523438 -2.796875 1.421875 -2.515625 C 1.328125 -2.242188 1.25 -1.960938 1.1875 -1.671875 C 1.132812 -1.390625 1.125 -1.113281 1.15625 -0.84375 C 1.1875 -0.582031 1.269531 -0.34375 1.40625 -0.125 C 1.550781 0.0820312 1.769531 0.238281 2.0625 0.34375 C 2.351562 0.457031 2.617188 0.476562 2.859375 0.40625 C 3.097656 0.332031 3.316406 0.207031 3.515625 0.03125 C 3.722656 -0.132812 3.898438 -0.34375 4.046875 -0.59375 C 4.191406 -0.851562 4.3125 -1.117188 4.40625 -1.390625 Z M 4.40625 -1.390625 "/></g></g></g><g fill="#b2834c" fill-opacity="1"><g transform="translate(247.125742, 28.150845)"><g><path d="M 6.65625 -2.703125 L 2.109375 1.25 L 1.40625 0.828125 L 2.671875 -5.0625 L 3.234375 -4.734375 L 2.078125 0.515625 L 6.109375 -3.03125 Z M 6.65625 -2.703125 "/></g></g></g><g fill="#b2834c" fill-opacity="1"><g transform="translate(252.514502, 31.486884)"><g><path d="M 2.9375 2.53125 L 0.171875 0.140625 L 3.90625 -4.203125 L 6.671875 -1.8125 L 6.34375 -1.421875 L 4.015625 -3.421875 L 2.671875 -1.859375 L 4.390625 -0.390625 L 4.0625 -0.015625 L 2.34375 -1.484375 L 0.953125 0.140625 L 3.28125 2.140625 Z M 2.9375 2.53125 "/></g></g></g><g fill="#b2834c" fill-opacity="1"><g transform="translate(257.239066, 35.711384)"><g><path d="M 2.625 3.203125 L 2.140625 2.609375 L 2.984375 -0.234375 L 2.421875 -0.921875 L 0.515625 0.625 L 0.140625 0.171875 L 4.5625 -3.453125 L 5.75 -2 C 6.144531 -1.507812 6.347656 -1.046875 6.359375 -0.609375 C 6.367188 -0.171875 6.164062 0.21875 5.75 0.5625 C 5.5625 0.71875 5.363281 0.820312 5.15625 0.875 C 4.957031 0.9375 4.757812 0.953125 4.5625 0.921875 C 4.363281 0.898438 4.171875 0.835938 3.984375 0.734375 C 3.796875 0.628906 3.617188 0.484375 3.453125 0.296875 Z M 5.359375 0.078125 C 5.648438 -0.160156 5.789062 -0.429688 5.78125 -0.734375 C 5.78125 -1.035156 5.644531 -1.347656 5.375 -1.671875 L 4.5625 -2.671875 L 2.8125 -1.25 L 3.625 -0.25 C 3.894531 0.0703125 4.171875 0.269531 4.453125 0.34375 C 4.742188 0.414062 5.046875 0.328125 5.359375 0.078125 Z M 5.359375 0.078125 "/></g></g></g><g fill="#b2834c" fill-opacity="1"><g transform="translate(261.154741, 40.694927)"><g><path d="M 2.015625 1.9375 L -0.71875 2.078125 L -0.921875 1.703125 L 1.625 1.25 Z M 2.015625 1.9375 "/></g></g></g><g fill="#b2834c" fill-opacity="1"><g transform="translate(264.141499, 46.284852)"><g><path d="M 2.78125 3.390625 C 2.257812 3.421875 1.804688 3.320312 1.421875 3.09375 C 1.046875 2.863281 0.769531 2.503906 0.59375 2.015625 C 0.46875 1.648438 0.4375 1.304688 0.5 0.984375 C 0.5625 0.671875 0.691406 0.382812 0.890625 0.125 C 1.085938 -0.132812 1.34375 -0.359375 1.65625 -0.546875 C 1.96875 -0.742188 2.304688 -0.90625 2.671875 -1.03125 C 3.035156 -1.15625 3.394531 -1.238281 3.75 -1.28125 C 4.113281 -1.332031 4.453125 -1.316406 4.765625 -1.234375 C 5.085938 -1.148438 5.375 -1.003906 5.625 -0.796875 C 5.875 -0.585938 6.0625 -0.300781 6.1875 0.0625 C 6.3125 0.40625 6.351562 0.71875 6.3125 1 C 6.269531 1.28125 6.148438 1.515625 5.953125 1.703125 L 6.578125 1.5 L 6.75 1.984375 L 4.96875 2.59375 L 4.796875 2.109375 C 4.992188 2.035156 5.160156 1.929688 5.296875 1.796875 C 5.441406 1.671875 5.554688 1.523438 5.640625 1.359375 C 5.722656 1.191406 5.769531 1.007812 5.78125 0.8125 C 5.800781 0.613281 5.773438 0.421875 5.703125 0.234375 C 5.609375 -0.0546875 5.457031 -0.273438 5.25 -0.421875 C 5.050781 -0.566406 4.816406 -0.65625 4.546875 -0.6875 C 4.273438 -0.71875 3.992188 -0.707031 3.703125 -0.65625 C 3.421875 -0.613281 3.144531 -0.546875 2.875 -0.453125 C 2.59375 -0.359375 2.320312 -0.238281 2.0625 -0.09375 C 1.800781 0.0507812 1.582031 0.21875 1.40625 0.40625 C 1.238281 0.59375 1.117188 0.804688 1.046875 1.046875 C 0.972656 1.285156 0.984375 1.550781 1.078125 1.84375 C 1.316406 2.53125 1.890625 2.863281 2.796875 2.84375 Z M 2.78125 3.390625 "/></g></g></g><g fill="#b2834c" fill-opacity="1"><g transform="translate(266.107936, 52.309911)"><g><path d="M 3.5 3.734375 C 3.113281 3.796875 2.738281 3.816406 2.375 3.796875 C 2.007812 3.773438 1.679688 3.695312 1.390625 3.5625 C 1.097656 3.4375 0.847656 3.25 0.640625 3 C 0.429688 2.757812 0.296875 2.4375 0.234375 2.03125 C 0.171875 1.644531 0.195312 1.300781 0.3125 1 C 0.425781 0.695312 0.601562 0.4375 0.84375 0.21875 C 1.082031 0.0078125 1.375 -0.160156 1.71875 -0.296875 C 2.0625 -0.429688 2.425781 -0.53125 2.8125 -0.59375 C 3.1875 -0.65625 3.550781 -0.675781 3.90625 -0.65625 C 4.269531 -0.632812 4.601562 -0.554688 4.90625 -0.421875 C 5.207031 -0.296875 5.460938 -0.109375 5.671875 0.140625 C 5.878906 0.390625 6.015625 0.707031 6.078125 1.09375 C 6.140625 1.488281 6.113281 1.835938 6 2.140625 C 5.882812 2.441406 5.703125 2.695312 5.453125 2.90625 C 5.203125 3.125 4.90625 3.300781 4.5625 3.4375 C 4.226562 3.570312 3.875 3.671875 3.5 3.734375 Z M 3.40625 3.140625 C 3.769531 3.078125 4.09375 2.984375 4.375 2.859375 C 4.664062 2.742188 4.90625 2.601562 5.09375 2.4375 C 5.289062 2.269531 5.429688 2.078125 5.515625 1.859375 C 5.597656 1.648438 5.617188 1.421875 5.578125 1.171875 C 5.523438 0.867188 5.410156 0.625 5.234375 0.4375 C 5.054688 0.257812 4.835938 0.128906 4.578125 0.046875 C 4.328125 -0.0234375 4.054688 -0.0625 3.765625 -0.0625 C 3.472656 -0.0703125 3.1875 -0.0507812 2.90625 0 C 2.613281 0.0390625 2.328125 0.109375 2.046875 0.203125 C 1.765625 0.296875 1.519531 0.421875 1.3125 0.578125 C 1.101562 0.734375 0.941406 0.925781 0.828125 1.15625 C 0.710938 1.382812 0.679688 1.648438 0.734375 1.953125 C 0.785156 2.265625 0.898438 2.503906 1.078125 2.671875 C 1.253906 2.847656 1.46875 2.976562 1.71875 3.0625 C 1.96875 3.15625 2.238281 3.203125 2.53125 3.203125 C 2.820312 3.203125 3.113281 3.179688 3.40625 3.140625 Z M 3.40625 3.140625 "/></g></g></g><g fill="#b2834c" fill-opacity="1"><g transform="translate(266.993714, 58.585531)"><g><path d="M -0.0625 3.875 L 0 0.21875 L 5.71875 0.3125 L 5.703125 0.90625 L 0.5 0.828125 L 0.453125 3.890625 Z M -0.0625 3.875 "/></g></g></g><g fill="#b2834c" fill-opacity="1"><g transform="translate(266.771764, 64.919481)"><g><path d="M -0.734375 3.8125 L -0.046875 0.21875 L 5.5625 1.296875 L 5.453125 1.875 L 0.34375 0.890625 L -0.234375 3.90625 Z M -0.734375 3.8125 "/></g></g></g><g fill="#b2834c" fill-opacity="1"><g transform="translate(265.448875, 71.117697)"><g><path d="M -1.390625 3.625 L -0.078125 0.203125 L 5.265625 2.25 L 3.953125 5.671875 L 3.484375 5.484375 L 4.578125 2.625 L 2.65625 1.890625 L 1.859375 4 L 1.390625 3.828125 L 2.1875 1.71875 L 0.1875 0.953125 L -0.90625 3.8125 Z M -1.390625 3.625 "/></g></g></g><g fill="#b2834c" fill-opacity="1"><g transform="translate(263.065542, 76.990337)"><g><path d="M -0.84375 4.296875 C -1.1875 3.921875 -1.390625 3.515625 -1.453125 3.078125 C -1.523438 2.640625 -1.429688 2.203125 -1.171875 1.765625 C -0.960938 1.421875 -0.71875 1.171875 -0.4375 1.015625 C -0.15625 0.859375 0.144531 0.773438 0.46875 0.765625 C 0.789062 0.753906 1.125 0.804688 1.46875 0.921875 C 1.820312 1.035156 2.164062 1.191406 2.5 1.390625 C 2.832031 1.585938 3.128906 1.8125 3.390625 2.0625 C 3.648438 2.3125 3.851562 2.582031 4 2.875 C 4.144531 3.175781 4.21875 3.488281 4.21875 3.8125 C 4.21875 4.132812 4.113281 4.46875 3.90625 4.8125 C 3.726562 5.113281 3.515625 5.335938 3.265625 5.484375 C 3.023438 5.628906 2.769531 5.691406 2.5 5.671875 L 3.0625 6 L 2.796875 6.453125 L 1.1875 5.5 L 1.453125 5.046875 C 1.628906 5.148438 1.8125 5.210938 2 5.234375 C 2.195312 5.265625 2.382812 5.253906 2.5625 5.203125 C 2.75 5.160156 2.921875 5.082031 3.078125 4.96875 C 3.234375 4.851562 3.359375 4.710938 3.453125 4.546875 C 3.617188 4.273438 3.691406 4.015625 3.671875 3.765625 C 3.648438 3.523438 3.566406 3.289062 3.421875 3.0625 C 3.285156 2.832031 3.109375 2.617188 2.890625 2.421875 C 2.671875 2.234375 2.4375 2.0625 2.1875 1.90625 C 1.9375 1.757812 1.671875 1.632812 1.390625 1.53125 C 1.117188 1.425781 0.851562 1.363281 0.59375 1.34375 C 0.332031 1.332031 0.0859375 1.375 -0.140625 1.46875 C -0.378906 1.5625 -0.582031 1.742188 -0.75 2.015625 C -1.113281 2.628906 -1 3.28125 -0.40625 3.96875 Z M -0.84375 4.296875 "/></g></g></g><g fill="#b2834c" fill-opacity="1"><g transform="translate(259.694787, 82.357479)"><g><path d="M 0.171875 5.59375 L 0.515625 5.203125 L 1.59375 6.125 L 2.40625 5.1875 L -1.140625 2.109375 L -1.75 2.8125 L -2.140625 2.46875 L -0.53125 0.609375 L -0.140625 0.953125 L -0.75 1.65625 L 2.796875 4.734375 L 3.59375 3.8125 L 2.515625 2.890625 L 2.859375 2.5 L 4.3125 3.75 L 1.625 6.84375 Z M 0.171875 5.59375 "/></g></g></g></svg>